<?xml version="1.0" standalone="no"?>
<!DOCTYPE svg PUBLIC "-//W3C//DTD SVG 20010904//EN"
 "http://www.w3.org/TR/2001/REC-SVG-20010904/DTD/svg10.dtd">
<svg version="1.0" xmlns="http://www.w3.org/2000/svg"
 width="639.000000pt" height="391.000000pt" viewBox="0 0 639.000000 391.000000"
 preserveAspectRatio="xMidYMid meet">

<g transform="translate(0.000000,391.000000) scale(0.100000,-0.100000)"
fill="#000000" stroke="none">
<path d="M4190 1985 l0 -485 90 0 90 0 0 485 0 485 -90 0 -90 0 0 -485z"/>
<path d="M3865 2418 c-22 -25 -26 -39 -21 -66 7 -43 19 -58 62 -72 43 -15 73
-8 107 24 61 57 14 146 -78 146 -36 0 -47 -5 -70 -32z"/>
<path d="M4556 2429 c-20 -16 -26 -29 -26 -60 0 -56 14 -76 60 -90 34 -10 46
-9 79 6 31 14 40 24 45 51 9 47 -1 78 -34 97 -39 23 -92 21 -124 -4z"/>
<path d="M2720 1958 l0 -458 92 0 91 0 -6 343 -6 342 33 -85 c33 -85 55 -145
84 -230 9 -25 22 -60 30 -79 8 -19 27 -70 42 -115 15 -45 36 -103 46 -129 l19
-48 59 3 58 3 23 60 c12 33 37 101 55 150 17 50 44 124 59 165 16 41 36 98 46
125 9 28 28 79 40 115 l23 65 -5 -342 -6 -343 91 0 92 0 0 458 0 457 -119 0
-119 0 -31 -76 c-17 -41 -31 -81 -31 -88 0 -6 -13 -47 -29 -89 -15 -42 -36
-99 -46 -127 -10 -27 -33 -93 -52 -145 -18 -52 -36 -103 -40 -112 -3 -10 -9
-18 -14 -18 -5 0 -9 8 -9 18 0 9 -13 51 -29 92 -27 70 -41 110 -79 220 -14 41
-28 80 -94 259 l-23 64 -122 1 -123 1 0 -457z"/>
<path d="M4900 2265 l0 -85 -50 0 -50 0 0 -65 0 -65 50 0 50 0 0 -209 c0 -230
5 -253 60 -306 30 -29 35 -30 136 -33 l104 -4 0 71 0 71 -44 0 c-75 0 -76 4
-76 221 l0 189 60 0 60 0 0 65 0 65 -60 0 -60 0 0 85 0 85 -90 0 -90 0 0 -85z"/>
<path d="M2187 2172 c-70 -25 -124 -76 -160 -152 -30 -61 -32 -72 -32 -176 0
-97 3 -117 25 -164 33 -70 72 -111 145 -150 59 -31 63 -31 170 -28 110 3 110
3 169 43 85 57 88 65 40 117 l-39 43 -48 -32 c-79 -53 -162 -52 -228 2 -32 27
-59 69 -59 95 0 19 5 20 215 20 l215 0 0 52 c0 228 -105 350 -299 347 -36 0
-88 -8 -114 -17z m195 -141 c22 -17 48 -78 48 -110 0 -8 -40 -11 -130 -11 -83
0 -130 4 -130 10 0 22 28 76 53 103 22 23 34 27 80 27 39 0 61 -6 79 -19z"/>
<path d="M5454 2172 c-66 -22 -119 -63 -144 -112 -34 -67 -32 -70 69 -70 87 0
89 1 95 25 4 15 18 30 32 35 29 11 94 13 119 4 23 -9 45 -57 45 -97 l0 -34
-102 -5 c-90 -4 -112 -9 -170 -37 -38 -18 -68 -36 -68 -40 0 -4 -8 -16 -19
-27 -28 -30 -44 -91 -37 -140 8 -58 45 -112 101 -147 42 -27 51 -29 133 -25
79 3 92 6 121 31 38 32 53 31 61 -4 6 -23 10 -24 94 -27 l88 -3 -7 33 c-4 18
-10 137 -14 263 -6 208 -9 234 -28 270 -29 56 -64 85 -125 107 -65 23 -175 23
-244 0z m216 -420 c0 -51 -4 -62 -28 -85 -77 -74 -192 -44 -192 51 0 24 9 42
29 63 28 27 34 29 110 29 l81 0 0 -58z"/>
<path d="M6242 2173 c-18 -9 -41 -26 -51 -39 -21 -27 -31 -22 -31 18 l0 28
-80 0 -80 0 0 -340 0 -340 85 0 85 0 0 235 0 235 40 25 c31 20 53 25 100 25
l60 0 0 85 0 85 -47 0 c-27 0 -63 -8 -81 -17z"/>
<path d="M3850 1840 l0 -340 90 0 90 0 0 340 0 340 -90 0 -90 0 0 -340z"/>
<path d="M4540 1840 l0 -340 85 0 85 0 0 340 0 340 -85 0 -85 0 0 -340z"/>
</g>
</svg>
